<svg id="visual" viewBox="0 0 900 600" width="900" height="600" xmlns="http://www.w3.org/2000/svg" xmlns:xlink="http://www.w3.org/1999/xlink" version="1.1"><rect x="0" y="0" width="900" height="600" fill="#fff"></rect><g transform="translate(433.185662610844 313.7414975230611)"><path d="M154.8 -214.8C200.3 -180 236.6 -134.4 256.9 -81.3C277.1 -28.2 281.2 32.2 255.9 74.8C230.6 117.4 175.8 142 128.3 172.1C80.7 202.1 40.4 237.6 2.6 233.9C-35.1 230.3 -70.1 187.5 -108.8 154.6C-147.5 121.7 -189.8 98.5 -215.4 60.4C-240.9 22.2 -249.8 -30.9 -225.8 -63.7C-201.8 -96.5 -145 -108.9 -101.9 -144.4C-58.8 -179.9 -29.4 -238.5 12.6 -255.8C54.7 -273.2 109.3 -249.5 154.8 -214.8" fill="#525252"></path></g></svg>