<svg id="Layer_1" data-name="Layer 1" xmlns="http://www.w3.org/2000/svg" viewBox="0 0 512 512"><defs><style>.cls-1{fill:#141f38;}</style></defs><title>dollar-bills-glyph</title><path class="cls-1" d="M25.6,153.6H0V128A64.19,64.19,0,0,1,64,64H89.6V89.6A64.11,64.11,0,0,1,25.6,153.6ZM448,64H422.4V89.6a64.11,64.11,0,0,0,64,64H512V128A64.19,64.19,0,0,0,448,64ZM278,213.22a23,23,0,0,0-6.4-2.72,82.26,82.26,0,0,0-13.49-2.25c-9.12-.95-14.09-2.6-14.09-7,0-5.09,3.55-6.87,12-6.87,6.51,0,9.59,2.25,12,6.87,1.78,3.31,3.32,3.79,6.51,2.37l8.17-3.67c3.67-1.54,4.5-3.31,2.72-6.63-4-8.64-10.77-13.73-20.36-15.39v-4.85c0-3.2-1.06-4.26-4.38-4.26h-9c-3.2,0-4.38,1.07-4.38,4.26v4.85c-14.68,2.37-22.61,10.89-22.61,23.32,0,7.69,3.08,13.73,6.75,16.93a20.62,20.62,0,0,0,7.34,4.14c6,2.37,9.47,2.72,16.1,3.55,9.35.95,14,2.49,14,7.22,0,5.09-4.5,7.58-13.5,7.58-6.75,0-11.13-2.37-13-7.22-1.54-3.43-3.2-4.14-6.63-2.84l-8.05,2.84q-4.79,1.78-3.19,6.39c3.67,9.71,11.25,15.51,22.84,17.28V262c0,3.32,1.19,4.38,4.38,4.38h9c3.31,0,4.38-1.06,4.38-4.38V256.9c14.68-2.72,23-11.48,23-24.15C288.45,222.57,283.35,216.42,278,213.22Zm208.37-34H512V256H486.4a89.62,89.62,0,0,0-89.6,89.6v25.6H358.4V384H448a38.46,38.46,0,0,0,35.42-23.59A63.51,63.51,0,0,1,448,371.2H422.4V345.6a64.11,64.11,0,0,1,64-64H512V384a64.19,64.19,0,0,1-64,64H64A64.19,64.19,0,0,1,0,384V281.6H25.6a64.11,64.11,0,0,1,64,64v25.6H64a63.51,63.51,0,0,1-35.42-10.79A38.46,38.46,0,0,0,64,384h89.6V371.2H115.2V345.6A89.62,89.62,0,0,0,25.6,256H0V179.2H25.6a89.62,89.62,0,0,0,89.6-89.6V64H396.8V89.6A89.62,89.62,0,0,0,486.4,179.2ZM153.6,422.4V409.6H64a63.51,63.51,0,0,1-35.42-10.79A38.46,38.46,0,0,0,64,422.4Zm179.2,0V89.6H179.2V422.4Zm25.6-12.8v12.8H448a38.46,38.46,0,0,0,35.42-23.59A63.51,63.51,0,0,1,448,409.6Z"/></svg>