<svg id="Layer_1" data-name="Layer 1" xmlns="http://www.w3.org/2000/svg" viewBox="0 0 512 512"><defs><style>.cls-1{fill:#141f38;}</style></defs><title>credit-card-front-glyph</title><path class="cls-1" d="M448,89.6H64a64.19,64.19,0,0,0-64,64V358.4a64.19,64.19,0,0,0,64,64H448a64.19,64.19,0,0,0,64-64V153.6A64.19,64.19,0,0,0,448,89.6ZM128,358.4H76.8a12.8,12.8,0,0,1,0-25.6H128a12.8,12.8,0,1,1,0,25.6Zm7.2-115.2h-40A31.29,31.29,0,0,1,64,212V184.8a31.29,31.29,0,0,1,31.2-31.2h40a31.29,31.29,0,0,1,31.2,31.2V212A31.29,31.29,0,0,1,135.2,243.2Zm95.2,115.2H179.2a12.8,12.8,0,0,1,0-25.6h51.2a12.8,12.8,0,1,1,0,25.6Zm102.4,0H281.6a12.8,12.8,0,0,1,0-25.6h51.2a12.8,12.8,0,1,1,0,25.6Zm102.4,0H384a12.8,12.8,0,0,1,0-25.6h51.2a12.8,12.8,0,1,1,0,25.6Zm-32-115.2a44.64,44.64,0,0,1-32-13.48,44.8,44.8,0,1,1,0-62.65,44.79,44.79,0,1,1,32,76.12Z"/></svg>