<svg id="Layer_1" data-name="Layer 1" xmlns="http://www.w3.org/2000/svg" viewBox="0 0 512 512"><defs><style>.cls-1{fill:#141f38;}</style></defs><title>currency-exchange-glyph</title><path class="cls-1" d="M153.7,86.19c0-.27-.08-.54-.09-.81s0-.44,0-.66,0-.67.06-1,0-.56.07-.84.1-.4.14-.6c.08-.36.17-.71.28-1.06s.1-.48.18-.71c0,0,0-.09.07-.13s0-.07,0-.1l18-46.49A12.8,12.8,0,1,1,196.36,43L190,59.37A186.37,186.37,0,0,1,352.21,73.93,12.8,12.8,0,1,1,339,95.85a160.87,160.87,0,0,0-139.78-12.6l19.49,7.12a12.8,12.8,0,1,1-8.79,24L162,96.92l-.13-.06-.11,0c-.14-.05-.25-.14-.38-.19-.34-.15-.67-.32-1-.5s-.57-.27-.83-.43-.26-.19-.4-.28c-.29-.2-.55-.42-.82-.64s-.53-.39-.76-.61-.23-.25-.35-.37-.42-.48-.63-.73-.45-.5-.64-.77-.2-.34-.31-.5-.15-.18-.22-.29-.15-.35-.25-.52-.32-.54-.45-.82-.14-.4-.22-.6-.22-.62-.32-.93-.19-.52-.25-.79-.06-.43-.1-.64S153.74,86.52,153.7,86.19ZM358.15,424.81c0-.21-.05-.43-.1-.63s-.17-.54-.25-.81-.2-.62-.32-.93-.13-.4-.22-.59-.31-.56-.46-.85-.14-.34-.24-.51-.15-.19-.22-.29-.19-.33-.3-.49-.45-.53-.67-.8-.39-.49-.61-.71-.22-.25-.33-.36-.53-.43-.8-.64-.52-.43-.8-.62-.25-.19-.38-.28-.56-.29-.85-.44-.66-.35-1-.5c-.13-.06-.24-.14-.37-.19l-.1,0-.14-.07-47.92-17.51a12.8,12.8,0,0,0-8.79,24l19.49,7.12A160.86,160.86,0,0,1,173,416.14a12.8,12.8,0,1,0-13.21,21.92A186.37,186.37,0,0,0,322,452.63L315.62,469a12.8,12.8,0,1,0,23.86,9.26l18-46.49s0-.09,0-.14,0-.06.06-.1c.09-.24.11-.48.18-.71s.2-.7.28-1.05c0-.2.11-.4.14-.6s0-.56.07-.84.05-.67.06-1,0-.44,0-.66-.06-.54-.09-.81S358.21,425.14,358.15,424.81ZM115.2,371.2A115.2,115.2,0,1,1,230.4,256,115.2,115.2,0,0,1,115.2,371.2Zm25.17-103.27c.37-8-3.63-12.86-7.83-15.37a18,18,0,0,0-5-2.14,65.12,65.12,0,0,0-10.63-1.77c-7.18-.75-11.09-2-11.09-5.5,0-4,2.8-5.4,9.41-5.4,5.13,0,7.55,1.77,9.41,5.4,1.4,2.61,2.61,3,5.13,1.87l6.43-2.89c2.89-1.21,3.54-2.61,2.14-5.22-3.17-6.8-8.48-10.81-16-12.12V221c0-2.51-.84-3.35-3.45-3.35h-7.09c-2.52,0-3.45.84-3.45,3.35v3.82c-11.56,1.86-17.8,8.57-17.8,18.36,0,6.06,2.42,10.82,5.31,13.33a16.22,16.22,0,0,0,5.78,3.26c4.75,1.86,7.46,2.14,12.67,2.8,7.36.75,11,2,11,5.69,0,4-3.54,6-10.63,6-5.31,0-8.76-1.86-10.25-5.68-1.21-2.71-2.52-3.26-5.22-2.24l-6.34,2.24q-3.78,1.4-2.52,5c2.89,7.64,8.86,12.21,18,13.61V291c0,2.61.93,3.45,3.45,3.45h7.09c2.61,0,3.45-.84,3.45-3.45v-4C133.85,284.8,140.37,277.9,140.37,267.93ZM512,256A115.2,115.2,0,1,1,396.8,140.8,115.2,115.2,0,0,1,512,256Zm-120.48-4V241.75c0-4.77,3.39-8.37,8.79-8.37,5.19,0,8.16,1.91,10.7,6.57,1.7,3.08,2.44,3.61,5.51,2.65l8.05-3c3.07-1.16,3.92-2.44,2.75-5.51q-6.83-16.53-27.65-16.53c-7.94,0-14.3,2.22-19,6.78a22.25,22.25,0,0,0-7,16.53V252h-3.5c-3.28,0-4.34.95-4.34,4.23v5.51c0,3.28,1.06,4.23,4.34,4.23h3.39v4c-.11,5.19-1.38,8.16-5.08,9.43h-.42c-1.59.1-2.33,1.27-2.33,3.6v7c0,3.28,1,4.34,4.24,4.34h52.33c3.28,0,4.24-1.06,4.24-4.34v-6.88c0-3.29-1.17-4.34-4.24-4.34H403.49a82.93,82.93,0,0,0-17.16,1.8V280c3.28-2.33,5-5.72,5.09-10.28V266h20.44c3.29,0,4.34-.95,4.34-4.23v-5.51c0-3.28-1.06-4.23-4.34-4.23Z"/></svg>