<svg id="Layer_1" data-name="Layer 1" xmlns="http://www.w3.org/2000/svg" viewBox="0 0 512 512"><defs><style>.cls-1{fill:#141f38;}</style></defs><title>shield-dollar-glyph</title><path class="cls-1" d="M430.55,64.25h0c-34.88-1.37-100-10-144.4-52.51-16.35-15.65-44-15.65-60.3,0-44.37,42.5-109.52,51.14-144.4,52.51-24.16,1-43.08,21.35-43.08,46.43V238.24C38.37,378.39,163.92,469,217.91,501.4a73.78,73.78,0,0,0,76.19,0c54-32.44,179.54-123,179.54-263.17V110.67C473.63,85.59,454.71,65.2,430.55,64.25ZM256,358.41A102.42,102.42,0,1,1,358.42,256,102.42,102.42,0,0,1,256,358.41Zm33.16-86.54c0,13.3-8.7,22.5-24.11,25.36v5.35c0,3.48-1.12,4.6-4.6,4.6H251c-3.35,0-4.6-1.11-4.6-4.6v-5.1c-12.18-1.87-20.13-8-24-18.15q-1.68-4.85,3.36-6.71l8.45-3c3.6-1.37,5.34-.62,7,3,2,5.1,6.59,7.57,13.67,7.57,9.45,0,14.17-2.61,14.17-7.95,0-5-4.85-6.59-14.67-7.58-7-.87-10.56-1.24-16.9-3.73a21.61,21.61,0,0,1-7.7-4.35c-3.86-3.35-7.09-9.69-7.09-17.77,0-13.05,8.33-22,23.74-24.49v-5.1c0-3.35,1.24-4.47,4.6-4.47h9.45c3.48,0,4.6,1.12,4.6,4.47v5.1c10.07,1.74,17.15,7.09,21.38,16.16,1.87,3.48,1,5.35-2.86,7L275,241.29c-3.36,1.49-5,1-6.84-2.49-2.49-4.85-5.72-7.2-12.55-7.2-8.82,0-12.55,1.87-12.55,7.2,0,4.6,5.22,6.34,14.79,7.33A86.88,86.88,0,0,1,272,248.5a24.06,24.06,0,0,1,6.71,2.86C284.32,254.72,289.66,261.18,289.16,271.87Z"/></svg>