<svg id="Layer_1" data-name="Layer 1" xmlns="http://www.w3.org/2000/svg" viewBox="0 0 512 512"><defs><style>.cls-1{fill:#141f38;}</style></defs><title>coupon-glyph</title><path class="cls-1" d="M435.2,64H76.8A76.88,76.88,0,0,0,0,140.8V371.2A76.88,76.88,0,0,0,76.8,448H435.2A76.88,76.88,0,0,0,512,371.2V140.8A76.88,76.88,0,0,0,435.2,64ZM153.6,422.4a12.8,12.8,0,1,1-25.6,0V396.8a12.8,12.8,0,0,1,25.6,0Zm0-76.8a12.8,12.8,0,1,1-25.6,0V320a12.8,12.8,0,1,1,25.6,0Zm0-76.8a12.8,12.8,0,1,1-25.6,0V243.2a12.8,12.8,0,1,1,25.6,0Zm0-76.8a12.8,12.8,0,1,1-25.6,0V166.4a12.8,12.8,0,1,1,25.6,0Zm0-76.8a12.8,12.8,0,1,1-25.6,0V89.6a12.8,12.8,0,1,1,25.6,0Zm76.8,89.6a38.4,38.4,0,1,1,38.4,38.4A38.44,38.44,0,0,1,230.4,204.8Zm25.6,128a12.8,12.8,0,0,1-9.05-21.85l128-128a12.8,12.8,0,0,1,18.1,18.1l-128,128A12.76,12.76,0,0,1,256,332.8Zm115.2,12.8a38.4,38.4,0,1,1,38.4-38.4A38.44,38.44,0,0,1,371.2,345.6Z"/><path class="cls-1" d="M371.2,294.4A12.8,12.8,0,1,0,384,307.2,12.82,12.82,0,0,0,371.2,294.4Z"/><path class="cls-1" d="M281.6,204.8a12.8,12.8,0,1,0-12.8,12.8A12.82,12.82,0,0,0,281.6,204.8Z"/></svg>