<svg id="Layer_1" data-name="Layer 1" xmlns="http://www.w3.org/2000/svg" viewBox="0 0 512 512"><defs><style>.cls-1{fill:#141f38;}</style></defs><title>piggy-bank-glyph</title><path class="cls-1" d="M243.2,294.4a12.8,12.8,0,1,1-12.8-12.8A12.8,12.8,0,0,1,243.2,294.4Zm38.4-12.8a12.8,12.8,0,1,0,12.8,12.8A12.8,12.8,0,0,0,281.6,281.6Zm163.91,114-8.77,85.78C435,498.7,418.57,512,399,512c-28.85,0-53.31-16.44-62.36-39.33a243.35,243.35,0,0,1-161.18,0c-9,22.89-33.51,39.33-62.36,39.33h0c-19.62,0-36-13.3-37.79-30.67l-8.77-85.78A243.15,243.15,0,0,1,42.7,126.32C-8,89.62,21.26,15.47,21.26,15.47,95.56-15.8,128.65,6.57,143,27.83a243.12,243.12,0,0,1,225.91,0C383.35,6.57,416.44-15.8,490.74,15.47c0,0,29.3,74.15-21.45,110.84a243.16,243.16,0,0,1-23.78,269.23ZM320,172.8a19.2,19.2,0,1,0,19.2-19.2A19.2,19.2,0,0,0,320,172.8Zm-166.4,0a19.2,19.2,0,1,0,19.2-19.2A19.2,19.2,0,0,0,153.6,172.8ZM332.8,294.4c0-27.75-35.17-51.2-76.8-51.2s-76.8,23.45-76.8,51.2,35.17,51.2,76.8,51.2S332.8,322.15,332.8,294.4Z"/></svg>