<svg id="visual" viewBox="0 0 900 600" width="900" height="600" xmlns="http://www.w3.org/2000/svg" xmlns:xlink="http://www.w3.org/1999/xlink" version="1.1"><path d="M548 600L710 545L539 491L593 436L755 382L755 327L683 273L611 218L773 164L665 109L485 55L656 0L900 0L900 55L900 109L900 164L900 218L900 273L900 327L900 382L900 436L900 491L900 545L900 600Z" fill="#daa520"></path><path d="M485 600L602 545L449 491L449 436L656 382L674 327L593 273L458 218L629 164L521 109L422 55L521 0L657 0L486 55L666 109L774 164L612 218L684 273L756 327L756 382L594 436L540 491L711 545L549 600Z" fill="#b88f35"></path><path d="M269 600L476 545L278 491L233 436L440 382L404 327L449 273L287 218L512 164L386 109L323 55L431 0L522 0L423 55L522 109L630 164L459 218L594 273L675 327L657 382L450 436L450 491L603 545L486 600Z" fill="#977a42"></path><path d="M89 600L62 545L143 491L116 436L89 382L71 327L170 273L143 218L179 164L179 109L170 55L125 0L432 0L324 55L387 109L513 164L288 218L450 273L405 327L441 382L234 436L279 491L477 545L270 600Z" fill="#75664b"></path><path d="M0 600L0 545L0 491L0 436L0 382L0 327L0 273L0 218L0 164L0 109L0 55L0 0L126 0L171 55L180 109L180 164L144 218L171 273L72 327L90 382L117 436L144 491L63 545L90 600Z" fill="#525252"></path></svg>