<svg id="visual" viewBox="0 0 900 600" width="900" height="600" xmlns="http://www.w3.org/2000/svg" xmlns:xlink="http://www.w3.org/1999/xlink" version="1.1"><rect x="0" y="0" width="900" height="600" fill="#fff"></rect><path d="M0 52L21.5 51.2C43 50.3 86 48.7 128.8 53.2C171.7 57.7 214.3 68.3 257.2 73.2C300 78 343 77 385.8 70C428.7 63 471.3 50 514.2 45.3C557 40.7 600 44.3 642.8 51.5C685.7 58.7 728.3 69.3 771.2 73.2C814 77 857 74 878.5 72.5L900 71L900 0L878.5 0C857 0 814 0 771.2 0C728.3 0 685.7 0 642.8 0C600 0 557 0 514.2 0C471.3 0 428.7 0 385.8 0C343 0 300 0 257.2 0C214.3 0 171.7 0 128.8 0C86 0 43 0 21.5 0L0 0Z" fill="#daa520" stroke-linecap="round" stroke-linejoin="miter"></path></svg>