<svg id="visual" viewBox="0 0 900 900" width="900" height="900" xmlns="http://www.w3.org/2000/svg" xmlns:xlink="http://www.w3.org/1999/xlink" version="1.1"><rect x="0" y="0" width="900" height="900" fill="#fafafa"></rect><path d="M0 765L12.5 722.8C25 680.7 50 596.3 75 567.8C100 539.3 125 566.7 150 608.5C175 650.3 200 706.7 225 702C250 697.3 275 631.7 300 611.7C325 591.7 350 617.3 375 589.5C400 561.7 425 480.3 450 463.2C475 446 500 493 525 511.8C550 530.7 575 521.3 600 517.5C625 513.7 650 515.3 675 521.3C700 527.3 725 537.7 750 537.5C775 537.3 800 526.7 825 504.5C850 482.3 875 448.7 887.5 431.8L900 415" fill="none" stroke-linecap="round" stroke-linejoin="miter" stroke="#fdba74" stroke-width="40"></path></svg>